<?xml version="1.0" encoding="utf-8"?>
<!-- Generator: Adobe Illustrator 26.3.1, SVG Export Plug-In . SVG Version: 6.00 Build 0)  -->
<svg version="1.1" id="filled_outline" xmlns="http://www.w3.org/2000/svg" xmlns:xlink="http://www.w3.org/1999/xlink" x="0px"
	 y="0px" viewBox="0 0 512 512" enable-background="new 0 0 512 512" xml:space="preserve">
<circle fill="#7EB0E6" cx="256" cy="176" r="168"/>
<path fill="#BDE673" d="M315.15,18.71l-20.74,17.28c-7.19,6-6.59,17.22,1.2,22.41l18.17,12.12c7.36,4.91,8.39,15.31,2.14,21.56
	l-6.34,6.34c-12.55,12.55-14.49,32.21-4.65,46.97l2.55,3.83c7.15,10.73,21.17,14.45,32.71,8.69l8.52-4.27
	c6.18-3.09,12.74,3.47,9.65,9.65l-13.97,27.93c-4.79,9.59-1.7,21.24,7.22,27.18c3.53,2.36,7.63,3.57,11.78,3.57
	c2.09,0,4.2-0.31,6.25-0.94l51.85-15.95c1.65-9.45,2.51-19.16,2.51-29.08C424,104.04,378.75,42.64,315.15,18.71z"/>
<path fill="#BDE673" d="M197.4,119.97c0,1.59-0.19,3.21-0.59,4.8c-2.26,9-10.33,15.02-19.21,15.02c-1.6,0-3.21-0.2-4.83-0.6
	c-5.12-1.28-9.82,2.69-9.82,7.64c0,0.63,0.08,1.28,0.24,1.94c3.05,12.2,0.6,25.13-6.71,35.36l-7.16,10.02
	c-12.28,17.19-35.23,22.89-54.13,13.45l-4.65-2.33C88.87,195.76,88,185.98,88,176c0-54.13,25.61-102.29,65.37-133
	c9.16,0.95,18.76,1.97,26.86,2.84c8.57,0.92,12.74,10.95,7.35,17.68l-6.07,7.6c-7.39,9.23-5.68,22.76,3.79,29.85l4.17,3.13
	C194.54,107.9,197.4,113.82,197.4,119.97z"/>
<path fill="#BDE673" d="M391.56,275.24C360.99,316.93,311.66,344,256,344c-19.63,0-38.48-3.37-56-9.56v-41.56
	c0-7.11,5.77-12.88,12.88-12.88h16.56c6.14,0,11.43,4.33,12.63,10.36l1.81,9.03c1.76,8.81,12.63,12.1,18.99,5.74l6.09-6.09
	c5.43-5.43,14.59-3.95,18.02,2.92c2.99,5.98,8.97,9.31,15.08,9.31c3.49,0,7.02-1.08,10.07-3.37l4.84-3.63
	c6.74-5.05,9.98-13.53,8.33-21.79c-0.34-1.7-0.5-3.38-0.5-5.05c0-12.43,9.13-23.42,21.93-25.25l7.36-1.05
	c13.22-1.89,26.26,4.49,32.89,16.09L391.56,275.24z"/>
<path fill="#BDE673" d="M208,185.109v-20.232c0-7.112,5.765-12.877,12.877-12.877h10.631c8.377,0,14.524,7.873,12.492,16v0
	c-2.032,8.127,4.115,16,12.492,16h15.015c8.377,0,14.524,7.873,12.492,16l-3.219,12.877c-0.513,2.051-0.513,4.196,0,6.246L284,232
	c2.032,8.127-4.115,16-12.492,16h-21.454c-5.909,0-11.059-4.021-12.492-9.754l-0.046-0.182c-2.428-9.71-14.52-13.06-21.598-5.982
	l-9.503,9.503c-7.962,7.962-20.87,7.962-28.831,0l0,0c-9.097-9.097-7.597-24.242,3.107-31.379l21.575-14.383
	C205.848,193.434,208,189.414,208,185.109z"/>
<path fill="#F0D0AA" d="M436.788,281.665l-10.692,58.808c-1.361,7.484-5.101,14.329-10.664,19.517l-25.608,23.881
	c-3.444,4.018-9.956,0.654-8.673-4.48l7.987-31.37c1.716-6.741-2.064-13.664-8.664-15.863l-0.307-0.102
	c-6.922-2.307-14.374,1.16-17.036,7.886c-7.018,17.727-19.981,50.171-25.036,62.816c-1.387,3.468-2.096,7.162-2.096,10.897V496h64
	v-46.302c0-11.106,5.364-21.529,14.401-27.984l34.532-24.666c4.509-3.22,7.483-8.164,8.215-13.656l12.866-96.494
	c1.131-8.485-4.29-16.467-12.595-18.543h0C447.988,265.997,438.527,272.101,436.788,281.665z"/>
<rect x="328" y="464" fill="#7EB0E6" width="80" height="40"/>
<path fill="#F0D0AA" d="M75.212,281.665l10.692,58.808c1.361,7.484,5.101,14.329,10.664,19.517l25.607,23.881
	c3.444,4.018,9.956,0.654,8.673-4.48l-7.987-31.37c-1.716-6.741,2.064-13.664,8.664-15.863l0.307-0.102
	c6.922-2.307,14.374,1.16,17.036,7.886c7.018,17.727,19.981,50.171,25.036,62.816c1.387,3.468,2.096,7.162,2.096,10.897V496h-64
	v-46.302c0-11.106-5.364-21.529-14.401-27.984l-34.532-24.666c-4.509-3.22-7.483-8.164-8.215-13.656l-12.866-96.494
	c-1.131-8.485,4.29-16.467,12.595-18.543h0C64.012,265.997,73.473,272.101,75.212,281.665z"/>
<rect x="104" y="464" transform="matrix(-1 -4.488377e-11 4.488377e-11 -1 288 968)" fill="#7EB0E6" width="80" height="40"/>
<path fill="#BDE673" d="M460.338,53.811c-15.535,15.706-45.192,11.561-45.192,11.561s-4.469-29.61,11.066-45.316
	s45.192-11.561,45.192-11.561S475.873,38.105,460.338,53.811z"/>
<g>
	<path fill="#4D5D2F" d="M448.96,42.56l-22.5,22.75c-0.19,0.19-0.39,0.37-0.59,0.54c-6.31,0.14-10.72-0.48-10.72-0.48
		s-0.67-4.41-0.59-10.72c0.16-0.21,0.33-0.4,0.52-0.59l22.51-22.75c3.1-3.14,8.17-3.17,11.31-0.06
		C452.04,34.35,452.07,39.42,448.96,42.56z"/>
</g>
<path fill="#BDE673" d="M492.338,131.944c-15.535,15.706-45.192,11.561-45.192,11.561s-4.469-29.61,11.066-45.316
	s45.192-11.561,45.192-11.561S507.873,116.238,492.338,131.944z"/>
<g>
	<path fill="#4D5D2F" d="M480.96,120.69l-22.5,22.75c-0.19,0.19-0.39,0.37-0.59,0.54c-6.11,0.14-10.44-0.43-10.71-0.47l-0.01-0.01
		c-0.04-0.25-0.66-4.58-0.59-10.72c0.16-0.21,0.33-0.4,0.52-0.59l22.51-22.75c3.1-3.14,8.17-3.17,11.31-0.06
		C484.04,112.49,484.07,117.55,480.96,120.69z"/>
</g>
<path fill="#BDE673" d="M492.338,229.811c-15.535,15.706-45.192,11.561-45.192,11.561s-4.469-29.61,11.066-45.316
	s45.192-11.561,45.192-11.561S507.873,214.105,492.338,229.811z"/>
<g>
	<path fill="#4D5D2F" d="M480.96,218.56l-22.5,22.75c-0.19,0.19-0.39,0.37-0.59,0.54c-6.31,0.14-10.72-0.48-10.72-0.48
		s-0.67-4.41-0.59-10.72c0.16-0.21,0.33-0.4,0.52-0.59l22.51-22.75c3.1-3.14,8.17-3.17,11.31-0.06
		C484.04,210.35,484.07,215.42,480.96,218.56z"/>
</g>
<path fill="#BDE673" d="M51.662,53.811c15.535,15.706,45.192,11.561,45.192,11.561s4.469-29.61-11.066-45.316
	S40.596,8.495,40.596,8.495S36.127,38.105,51.662,53.811z"/>
<g>
	<path fill="#4D5D2F" d="M96.85,65.37c0,0-4.41,0.62-10.72,0.48c-0.2-0.17-0.4-0.35-0.59-0.54l-22.5-22.75
		c-3.11-3.14-3.08-8.21,0.06-11.31c3.14-3.11,8.21-3.08,11.31,0.06l22.51,22.75c0.19,0.19,0.36,0.38,0.52,0.59
		C97.52,60.96,96.85,65.37,96.85,65.37z"/>
</g>
<path fill="#BDE673" d="M19.662,131.944c15.535,15.706,45.192,11.561,45.192,11.561s4.469-29.61-11.066-45.316
	S8.596,86.628,8.596,86.628S4.127,116.238,19.662,131.944z"/>
<g>
	<path fill="#4D5D2F" d="M64.85,143.5c-0.01,0.01-0.01,0.01-0.02,0.01c-0.35,0.05-4.65,0.61-10.7,0.47c-0.2-0.17-0.4-0.35-0.59-0.54
		l-22.5-22.75c-3.11-3.14-3.08-8.2,0.06-11.31c3.14-3.11,8.21-3.08,11.31,0.06l22.51,22.75c0.19,0.19,0.36,0.38,0.52,0.59
		C65.51,138.9,64.89,143.23,64.85,143.5z"/>
</g>
<path fill="#BDE673" d="M19.662,229.811c15.535,15.706,45.192,11.561,45.192,11.561s4.469-29.61-11.066-45.316
	S8.596,184.495,8.596,184.495S4.127,214.105,19.662,229.811z"/>
<g>
	<path fill="#4D5D2F" d="M64.85,241.37c0,0-4.41,0.62-10.72,0.48c-0.2-0.17-0.4-0.35-0.59-0.54l-22.5-22.75
		c-3.11-3.14-3.08-8.21,0.06-11.31c3.14-3.11,8.21-3.08,11.31,0.06l22.51,22.75c0.19,0.19,0.36,0.38,0.52,0.59
		C65.52,236.96,64.85,241.37,64.85,241.37z"/>
</g>
<g>
	<path d="M432,176C432,78.953,353.047,0,256,0S80,78.953,80,176s78.953,176,176,176S432,273.047,432,176z M416,176
		c0,7.777-0.569,15.422-1.646,22.906l-47.062,14.477c-3.786,1.164-7.963,0.554-11.247-1.641c-5.545-3.693-7.479-10.979-4.5-16.943
		l13.97-27.931c2.975-5.949,1.857-12.833-2.847-17.537c-4.705-4.704-11.588-5.82-17.542-2.843l-8.509,4.264
		c-7.915,3.952-17.581,1.386-22.479-5.967l-2.552-3.832c-7.701-11.552-6.166-27.061,3.65-36.876l6.34-6.34
		c4.679-4.68,6.99-11.139,6.339-17.723c-0.651-6.587-4.185-12.474-9.696-16.15l-18.173-12.121c-1.591-1.061-2.562-2.762-2.665-4.67
		c-0.103-1.911,0.682-3.712,2.15-4.937l17.056-14.211C374.856,51.855,416,109.208,416,176z M155.871,51.303
		c8.115,0.847,16.389,1.726,23.505,2.491c1.491,0.16,2.129,1.183,2.376,1.777c0.248,0.597,0.524,1.772-0.423,2.956l-6.064,7.593
		c-4.943,6.174-7.115,13.896-6.117,21.744c0.998,7.845,5.031,14.772,11.35,19.504l4.174,3.133c2.961,2.22,4.729,5.759,4.729,9.469
		c0,0.972-0.117,1.93-0.349,2.852c-1.326,5.28-6.035,8.969-11.451,8.969c-0.946,0-1.926-0.123-2.891-0.362
		c-4.781-1.191-9.745-0.143-13.621,2.883c-3.901,3.047-6.139,7.61-6.139,12.52c0,1.262,0.156,2.547,0.479,3.88
		c2.487,9.948,0.498,20.435-5.458,28.769L142.81,189.5c-10.05,14.068-28.573,18.672-44.036,10.947l-0.98-0.491
		C96.615,192.139,96,184.14,96,176C96,125.643,119.391,80.654,155.871,51.303z M101.749,218.533
		c4.215,1.096,8.492,1.655,12.739,1.655c15.962-0.001,31.46-7.557,41.341-21.387l7.16-10.021
		c8.655-12.111,11.567-27.335,8.001-41.791c2.195,0.53,4.418,0.8,6.61,0.8c12.763,0,23.853-8.665,26.968-21.069
		c0.552-2.193,0.832-4.465,0.832-6.751c0-8.721-4.162-17.046-11.128-22.269l-4.178-3.136c-2.826-2.116-4.628-5.213-5.075-8.72
		c-0.446-3.511,0.525-6.965,2.741-9.733l6.063-7.592c4.321-5.396,5.356-12.713,2.701-19.096c-2.655-6.38-8.571-10.802-15.44-11.539
		c-1.575-0.169-3.214-0.345-4.888-0.524C199.7,23.78,226.958,16,256,16c14.851,0,29.233,2.042,42.888,5.846l-9.604,8.002
		c-5.385,4.494-8.257,11.086-7.88,18.086c0.377,6.997,3.938,13.238,9.767,17.122l18.169,12.119c2.064,1.377,2.548,3.356,2.653,4.414
		c0.104,1.055,0.018,3.086-1.73,4.834l-6.34,6.34c-15.19,15.19-17.566,39.189-5.652,57.062l2.551,3.83
		c9.361,14.051,27.823,18.958,42.951,11.407l6.345-3.18l-12.886,25.763c-6.579,13.173-2.305,29.257,9.932,37.406
		c4.814,3.218,10.425,4.918,16.226,4.918c2.915,0,5.808-0.435,8.602-1.293l38.739-11.917c-4.093,15.523-10.466,30.128-18.738,43.439
		c-8.719-12.573-23.662-19.184-39.034-16.989l-7.362,1.05c-16.417,2.348-28.798,16.607-28.798,33.17c0,2.216,0.22,4.442,0.655,6.618
		c1.041,5.211-1.032,10.636-5.286,13.822l-4.841,3.632c-1.541,1.156-3.362,1.768-5.268,1.768c-3.381,0-6.417-1.873-7.923-4.883
		c-2.755-5.519-8.036-9.404-14.126-10.395c-6.095-0.991-12.341,1.025-16.708,5.391l-6.09,6.09c-1.203,1.203-2.551,1.03-3.25,0.818
		c-0.694-0.21-1.908-0.811-2.24-2.473l-1.808-9.021C247.979,279.064,239.368,272,229.44,272h-16.56
		c-11.513,0-20.88,9.366-20.88,20.88v29.747C148.238,303.451,114.645,265.246,101.749,218.533z M256,336
		c-16.717,0-32.841-2.582-48-7.359V292.88c0-2.69,2.189-4.88,4.88-4.88h16.56c2.32,0,4.332,1.648,4.786,3.932l1.81,9.026
		c1.393,6.973,6.486,12.585,13.291,14.646c6.809,2.061,14.167,0.216,19.201-4.817l6.09-6.091c1.026-1.025,2.212-1.015,2.826-0.911
		c0.612,0.099,1.735,0.459,2.381,1.753c4.235,8.47,12.755,13.731,22.235,13.731c5.396,0,10.54-1.719,14.871-4.97l4.836-3.628
		c9.154-6.858,13.62-18.539,11.378-29.759c-0.232-1.162-0.345-2.302-0.345-3.483c0-8.652,6.476-16.103,15.06-17.33l7.362-1.05
		c10.033-1.44,19.777,3.33,24.811,12.137l1.925,3.371C352.643,311.939,307.079,336,256,336z"/>
	<path d="M192,255.556c7.583,0,14.711-2.953,20.072-8.314l9.503-9.503c1.814-1.814,3.926-1.479,4.75-1.251
		c0.824,0.228,2.807,1.027,3.43,3.518l0.045,0.182c2.328,9.311,10.656,15.813,20.254,15.813h21.454
		c6.473,0,12.471-2.927,16.455-8.029s5.368-11.631,3.798-17.911l-3.219-12.877c-0.193-0.773-0.193-1.592,0-2.365l3.219-12.877
		c1.57-6.28,0.186-12.809-3.798-17.911S277.981,176,271.508,176h-15.016c-2.07,0-3.297-1.175-3.844-1.876
		c-0.547-0.7-1.39-2.175-0.887-4.184c1.57-6.28,0.186-12.809-3.798-17.911S237.981,144,231.508,144h-10.631
		C209.365,144,200,153.365,200,164.877v20.231c0,1.635-0.812,3.151-2.171,4.058l-21.575,14.384
		c-7.104,4.735-11.661,12.324-12.502,20.821c-0.842,8.497,2.139,16.833,8.176,22.869C177.289,252.603,184.417,255.556,192,255.556z
		 M179.673,225.948c0.367-3.708,2.355-7.02,5.456-9.086l21.574-14.384c5.821-3.88,9.297-10.374,9.297-17.37v-20.231
		c0-2.689,2.188-4.877,4.877-4.877h10.631c2.07,0,3.297,1.175,3.844,1.876c0.547,0.7,1.39,2.175,0.887,4.184
		c-1.57,6.28-0.186,12.809,3.798,17.911S250.019,192,256.492,192h15.016c2.07,0,3.297,1.175,3.844,1.876
		c0.547,0.7,1.39,2.175,0.887,4.184l-3.219,12.877c-0.828,3.312-0.828,6.814,0,10.127l3.219,12.877
		c0.502,2.009-0.34,3.483-0.887,4.184c-0.547,0.701-1.773,1.876-3.844,1.876h-21.454c-2.242,0-4.188-1.52-4.731-3.694l-0.045-0.182
		c-1.849-7.394-7.337-13.022-14.682-15.057c-1.89-0.523-3.796-0.779-5.677-0.779c-5.432,0-10.655,2.135-14.657,6.137l-9.503,9.503
		c-2.339,2.339-5.45,3.628-8.758,3.628s-6.419-1.289-8.759-3.629C180.606,233.293,179.306,229.655,179.673,225.948z"/>
	<path d="M459.359,260.594c-6.634-1.66-13.732-0.483-19.477,3.224c-5.745,3.706-9.742,9.689-10.965,16.417l-10.692,58.808
		c-1.045,5.751-3.975,11.112-8.249,15.098l-18.542,17.292l5.458-21.437c2.736-10.749-3.363-21.918-13.883-25.425l-0.311-0.104
		c-10.919-3.64-22.782,1.866-27.004,12.531c-6.995,17.669-19.832,49.798-25.026,62.792c-1.77,4.428-2.667,9.094-2.667,13.866V456
		c-4.418,0-8,3.582-8,8v40c0,4.418,3.582,8,8,8h80c4.418,0,8-3.582,8-8v-40c0-4.418-3.582-8-8-8v-6.302
		c0-8.504,4.131-16.532,11.051-21.475l34.532-24.666c6.284-4.489,10.474-11.454,11.495-19.108l12.866-96.494
		C479.615,275.423,471.625,263.66,459.359,260.594z M400,496h-64v-24h64V496z M462.084,285.84l-12.866,96.494
		c-0.438,3.286-2.237,6.277-4.935,8.204l-34.532,24.666C398.636,423.144,392,436.038,392,449.698V456h-48v-42.345
		c0-2.729,0.513-5.397,1.524-7.928c5.197-13.001,18.042-45.149,25.046-62.84c1.098-2.773,4.204-4.197,7.064-3.244l0.311,0.104
		c2.608,0.87,4.119,3.638,3.441,6.301l-7.995,31.403c-1.471,5.883,1.265,11.936,6.652,14.72c5.226,2.699,11.516,1.583,15.491-2.686
		l25.354-23.645c6.776-6.318,11.42-14.819,13.079-23.937l10.692-58.808c0.441-2.426,1.825-4.498,3.897-5.835
		c2.072-1.338,4.531-1.744,6.922-1.146C459.838,277.205,462.678,281.386,462.084,285.84z"/>
	<path d="M184,456v-42.345c0-4.772-0.897-9.438-2.667-13.867c-5.194-12.993-18.031-45.122-25.025-62.791
		c-4.222-10.664-16.083-16.171-27.008-12.529l-0.304,0.102c-10.523,3.508-16.623,14.677-13.886,25.426l5.458,21.437l-18.542-17.292
		c-4.273-3.985-7.203-9.347-8.249-15.097l-10.692-58.81c-1.223-6.727-5.22-12.71-10.965-16.416
		c-5.745-3.708-12.843-4.882-19.478-3.224c-12.266,3.066-20.255,14.829-18.584,27.361l12.866,96.494
		c1.021,7.654,5.21,14.619,11.495,19.108l34.532,24.666c6.92,4.942,11.051,12.971,11.051,21.475V456c-4.418,0-8,3.582-8,8v40
		c0,4.418,3.582,8,8,8h80c4.418,0,8-3.582,8-8v-40C192,459.582,188.418,456,184,456z M102.249,415.204l-34.532-24.666
		c-2.698-1.927-4.497-4.918-4.935-8.204L49.916,285.84c-0.594-4.454,2.246-8.635,6.605-9.725c2.392-0.597,4.851-0.19,6.923,1.146
		c2.072,1.337,3.456,3.409,3.897,5.834l10.692,58.81c1.658,9.116,6.303,17.617,13.079,23.936l25.354,23.645
		c3.975,4.271,10.264,5.384,15.491,2.686c5.388-2.784,8.124-8.837,6.644-14.753l-7.987-31.37c-0.678-2.663,0.833-5.431,3.444-6.302
		l0.303-0.101c2.866-0.956,5.971,0.469,7.069,3.242c7.004,17.69,19.849,49.839,25.045,62.839c1.012,2.531,1.524,5.199,1.524,7.929
		V456h-48v-6.302C120,436.038,113.364,423.144,102.249,415.204z M176,496h-64v-24h64V496z"/>
	<path d="M414.039,73.295c0.452,0.063,4.262,0.57,9.822,0.57c11.35,0,29.984-2.114,42.165-14.429
		c18.148-18.348,13.496-50.765,13.289-52.136c-0.528-3.501-3.296-6.238-6.803-6.729c-1.373-0.192-33.839-4.49-51.988,13.857
		c-18.148,18.349-13.495,50.766-13.288,52.137C407.764,70.067,410.532,72.805,414.039,73.295z M455.08,16.382
		c3.313-0.347,6.383-0.41,8.886-0.367c0.073,2.503,0.04,5.572-0.27,8.889c-0.664,7.12-2.772,16.938-9.046,23.281
		c-5.395,5.455-13.389,7.853-20.046,8.891l14.358-14.516c3.107-3.142,3.08-8.207-0.062-11.313c-3.142-3.108-8.207-3.08-11.313,0.062
		l-14.359,14.517c0.965-6.668,3.276-14.688,8.67-20.143C438.173,19.338,447.968,17.123,455.08,16.382z"/>
	<path d="M439.236,144.699c0.528,3.501,3.296,6.238,6.803,6.729c0.452,0.063,4.263,0.57,9.825,0.57
		c11.35,0,29.982-2.114,42.162-14.428c0,0,0,0,0,0c18.147-18.349,13.495-50.766,13.288-52.137c-0.528-3.501-3.296-6.238-6.803-6.729
		c-1.375-0.194-33.84-4.489-51.987,13.858C434.375,110.911,439.029,143.328,439.236,144.699z M487.081,94.515
		c3.313-0.345,6.381-0.409,8.885-0.367c0.073,2.503,0.04,5.572-0.27,8.889c-0.664,7.12-2.772,16.938-9.046,23.282
		c-5.395,5.454-13.389,7.852-20.045,8.89l14.358-14.516c3.107-3.142,3.08-8.207-0.062-11.313c-3.142-3.107-8.207-3.08-11.313,0.062
		l-14.359,14.517c0.965-6.668,3.276-14.688,8.67-20.142C470.173,97.472,479.968,95.256,487.081,94.515z"/>
	<path d="M511.314,183.301c-0.528-3.501-3.296-6.238-6.803-6.729c-1.374-0.192-33.839-4.49-51.988,13.857
		c-18.148,18.349-13.495,50.766-13.288,52.137c0.528,3.501,3.296,6.238,6.803,6.729c0.452,0.063,4.262,0.57,9.822,0.57
		c11.35,0,29.984-2.114,42.165-14.429C516.174,217.089,511.521,184.672,511.314,183.301z M495.696,200.903
		c-0.664,7.12-2.772,16.938-9.046,23.281c-5.395,5.455-13.389,7.853-20.046,8.891l14.358-14.516
		c3.107-3.142,3.08-8.207-0.062-11.313c-3.142-3.107-8.207-3.08-11.313,0.062l-14.359,14.517c0.965-6.668,3.276-14.688,8.67-20.143
		c6.274-6.344,16.069-8.559,23.181-9.3c3.314-0.346,6.382-0.41,8.886-0.367C496.039,194.518,496.005,197.587,495.696,200.903z"/>
	<path d="M88.139,73.865c5.559,0,9.371-0.507,9.822-0.57c3.507-0.49,6.274-3.228,6.803-6.729c0.207-1.371,4.86-33.788-13.288-52.137
		C73.328-3.918,40.862,0.379,39.489,0.572c-3.507,0.49-6.274,3.228-6.803,6.729c-0.207,1.371-4.86,33.788,13.289,52.136
		C58.156,71.753,76.79,73.865,88.139,73.865z M48.034,16.035c8.494-0.146,23.499,0.983,32.067,9.646
		c5.395,5.455,7.706,13.474,8.671,20.143L74.413,31.308c-3.106-3.141-8.171-3.171-11.313-0.062
		c-3.141,3.106-3.169,8.172-0.062,11.313l14.358,14.516c-6.657-1.038-14.651-3.436-20.046-8.891
		c-6.274-6.343-8.382-16.161-9.046-23.281C47.995,21.596,47.961,18.533,48.034,16.035z"/>
	<path d="M13.975,137.57c12.181,12.314,30.812,14.428,42.162,14.428c5.56,0,9.373-0.507,9.825-0.57
		c3.507-0.49,6.274-3.228,6.803-6.729c0.207-1.371,4.86-33.788-13.288-52.136C41.329,74.215,8.862,78.511,7.489,78.705
		c-3.507,0.49-6.274,3.228-6.803,6.729C0.479,86.805-4.173,119.222,13.975,137.57C13.974,137.57,13.974,137.57,13.975,137.57z
		 M16.034,94.148c2.503-0.051,5.573,0.021,8.885,0.366c7.112,0.741,16.907,2.957,23.182,9.301c5.395,5.454,7.706,13.473,8.67,20.142
		L42.413,109.44c-3.106-3.141-8.171-3.17-11.313-0.062c-3.141,3.106-3.169,8.172-0.062,11.313l14.335,14.493
		c-7.106-1.09-14.772-3.558-20.023-8.867h0c-6.274-6.344-8.383-16.162-9.046-23.282C15.995,99.72,15.961,96.649,16.034,94.148z"/>
	<path d="M65.961,249.295c3.507-0.49,6.274-3.228,6.803-6.729c0.207-1.371,4.86-33.788-13.288-52.137
		c-18.148-18.347-50.614-14.051-51.987-13.857c-3.507,0.49-6.274,3.228-6.803,6.729c-0.207,1.371-4.86,33.788,13.289,52.136
		c12.182,12.316,30.815,14.429,42.165,14.429C61.698,249.865,65.51,249.358,65.961,249.295z M16.304,200.903
		c-0.309-3.308-0.342-6.37-0.27-8.868c8.493-0.144,23.499,0.983,32.067,9.646c5.395,5.455,7.706,13.474,8.671,20.143l-14.359-14.517
		c-3.106-3.142-8.171-3.171-11.313-0.062c-3.141,3.106-3.169,8.172-0.062,11.313l14.358,14.516
		c-6.657-1.038-14.651-3.436-20.046-8.891C19.076,217.842,16.967,208.023,16.304,200.903z"/>
</g>
</svg>
