<?xml version="1.0" standalone="no"?>
<!DOCTYPE svg PUBLIC "-//W3C//DTD SVG 20010904//EN"
 "http://www.w3.org/TR/2001/REC-SVG-20010904/DTD/svg10.dtd">
<svg version="1.0" xmlns="http://www.w3.org/2000/svg"
 width="500.000000pt" height="500.000000pt" viewBox="0 0 500.000000 500.000000"
 preserveAspectRatio="xMidYMid meet">

<g transform="translate(0.000000,500.000000) scale(0.100000,-0.100000)"
fill="#000000" stroke="none">
<path d="M2668 3633 c6 -2 18 -2 25 0 6 3 1 5 -13 5 -14 0 -19 -2 -12 -5z"/>
<path d="M2728 3623 c7 -3 16 -2 19 1 4 3 -2 6 -13 5 -11 0 -14 -3 -6 -6z"/>
<path d="M2768 3613 c7 -3 16 -2 19 1 4 3 -2 6 -13 5 -11 0 -14 -3 -6 -6z"/>
<path d="M2430 3600 c-417 -38 -780 -282 -959 -644 -24 -48 -41 -89 -39 -92 3
-2 15 20 27 50 82 199 312 440 526 548 76 39 210 83 310 103 72 14 122 16 250
12 140 -4 173 -9 265 -36 364 -106 645 -372 773 -728 80 -223 80 -523 0 -746
-61 -171 -145 -304 -275 -435 -238 -240 -566 -360 -909 -330 -345 29 -664 220
-851 508 -74 113 -93 154 -133 274 -19 55 -34 94 -35 85 0 -29 51 -171 93
-254 98 -196 219 -333 425 -478 28 -20 57 -37 62 -37 6 0 10 -5 10 -10 0 -6 3
-9 8 -8 4 0 33 -11 66 -26 270 -124 625 -126 924 -6 50 20 92 36 92 34 0 -7
-108 -58 -180 -85 -41 -15 -70 -28 -63 -29 6 0 45 12 85 26 399 144 685 465
785 884 14 58 18 116 18 260 0 241 -24 349 -121 543 -119 238 -328 441 -575
556 -46 22 -97 42 -114 45 -29 6 -29 6 -5 -5 93 -42 188 -90 205 -103 11 -9
-23 4 -75 29 -53 24 -149 58 -214 75 -125 32 -197 36 -376 20z m680 -2185 c0
-2 -10 -9 -22 -15 -22 -11 -22 -10 -4 4 21 17 26 19 26 11z"/>
<path d="M2820 3600 c8 -5 22 -9 30 -9 10 0 8 3 -5 9 -27 12 -43 12 -25 0z"/>
<path d="M2450 3494 c-14 -2 -59 -9 -99 -15 -288 -43 -587 -248 -747 -514 -28
-46 -3 -17 50 58 131 187 345 338 562 398 90 25 236 40 273 29 22 -7 23 -8 5
-9 -37 -2 -176 -51 -255 -91 -303 -151 -512 -415 -573 -724 -50 -250 24 -538
197 -768 154 -205 395 -351 672 -408 54 -11 58 -13 35 -22 -14 -6 -78 -8 -145
-5 -263 11 -493 122 -697 336 -81 85 -86 88 -43 32 55 -70 163 -168 252 -229
277 -188 620 -233 926 -122 208 77 428 244 511 390 l25 44 -32 23 c-47 35
-132 63 -191 63 -84 0 -147 -24 -241 -94 -186 -139 -408 -174 -635 -99 -232
76 -455 286 -522 493 -32 101 -36 272 -9 381 79 310 338 545 686 620 90 19
275 17 370 -5 106 -23 244 -91 327 -160 57 -47 74 -69 107 -138 108 -227 67
-411 -97 -432 -57 -8 -191 14 -293 49 l-74 24 75 -7 c41 -4 131 -7 200 -7 101
0 131 3 158 18 35 19 35 37 -1 37 -12 0 -87 31 -167 70 -161 77 -235 100 -325
100 l-60 0 37 -22 c32 -18 37 -26 40 -67 5 -52 -5 -75 -40 -91 l-25 -11 31
-32 c28 -29 32 -40 32 -90 0 -54 -1 -57 -27 -63 -16 -3 -32 -7 -37 -8 -18 -4
115 -57 171 -67 126 -24 244 10 370 105 113 85 157 183 157 346 0 79 -4 105
-26 158 -97 235 -313 424 -560 492 -111 30 -269 45 -348 34z m-509 -443 c-31
-38 -41 -69 -20 -55 6 3 -10 -22 -36 -57 -78 -108 -155 -298 -155 -385 0 -12
-5 -24 -10 -26 -6 -2 -14 -23 -19 -48 -8 -39 -9 -41 -10 -13 -2 59 20 188 47
267 30 91 105 220 176 300 55 64 73 75 27 17z"/>
<path d="M1555 2879 c-4 -6 -5 -12 -2 -15 2 -3 7 2 10 11 7 17 1 20 -8 4z"/>
<path d="M1411 2819 c-6 -18 -11 -37 -10 -43 0 -6 7 7 15 28 8 22 12 41 10 43
-2 2 -9 -10 -15 -28z"/>
<path d="M1386 2734 c-4 -14 -5 -28 -3 -31 3 -2 8 8 11 23 4 14 5 28 3 31 -3
2 -8 -8 -11 -23z"/>
<path d="M1372 2670 c0 -14 2 -19 5 -12 2 6 2 18 0 25 -3 6 -5 1 -5 -13z"/>
<path d="M1356 2584 c-8 -61 -7 -258 2 -308 4 -21 7 49 7 157 0 109 -1 197 -1
197 -1 0 -4 -21 -8 -46z"/>
<path d="M1372 2210 c0 -14 2 -19 5 -12 2 6 2 18 0 25 -3 6 -5 1 -5 -13z"/>
<path d="M1550 1991 c0 -6 4 -13 10 -16 6 -3 7 1 4 9 -7 18 -14 21 -14 7z"/>
<path d="M1610 1891 c5 -11 15 -23 21 -27 6 -3 3 5 -6 20 -20 30 -30 35 -15 7z"/>
<path d="M2778 1263 c7 -3 16 -2 19 1 4 3 -2 6 -13 5 -11 0 -14 -3 -6 -6z"/>
<path d="M2738 1253 c7 -3 16 -2 19 1 4 3 -2 6 -13 5 -11 0 -14 -3 -6 -6z"/>
<path d="M2678 1243 c7 -3 16 -2 19 1 4 3 -2 6 -13 5 -11 0 -14 -3 -6 -6z"/>
</g>
</svg>
